<svg viewBox="0 0 1200 630" xmlns="http://www.w3.org/2000/svg">
  <defs>
    <linearGradient id="bg" x1="0" y1="0" x2="1" y2="1">
      <stop offset="0" stop-color="#2b1b4d"/><stop offset=".55" stop-color="#7B3FE4"/><stop offset="1" stop-color="#E0457B"/>
    </linearGradient>
    <radialGradient id="vig" cx="50%" cy="42%" r="70%">
      <stop offset="60%" stop-color="#000" stop-opacity="0"/><stop offset="100%" stop-color="#000" stop-opacity=".28"/>
    </radialGradient>
  </defs>
  <rect width="1200" height="630" fill="url(#bg)"/>
  <g stroke="#ffffff" stroke-opacity=".38" stroke-width="2.5">
    <line x1="240" y1="180" x2="470" y2="330"/><line x1="470" y1="330" x2="330" y2="500"/>
    <line x1="470" y1="330" x2="720" y2="230"/><line x1="720" y1="230" x2="930" y2="400"/>
    <line x1="720" y1="230" x2="880" y2="130"/><line x1="470" y1="330" x2="620" y2="470"/>
    <line x1="930" y1="400" x2="620" y2="470"/><line x1="240" y1="180" x2="330" y2="500"/>
    <line x1="880" y1="130" x2="1000" y2="270"/>
  </g>
  <g fill="#ffffff" fill-opacity=".22">
    <circle cx="470" cy="330" r="42"/><circle cx="720" cy="230" r="36"/>
  </g>
  <g fill="#ffffff">
    <circle cx="240" cy="180" r="12"/><circle cx="470" cy="330" r="20"/><circle cx="330" cy="500" r="10"/>
    <circle cx="720" cy="230" r="16"/><circle cx="930" cy="400" r="13"/><circle cx="880" cy="130" r="9"/>
    <circle cx="620" cy="470" r="14"/><circle cx="1000" cy="270" r="10"/>
  </g>
  <rect width="1200" height="630" fill="url(#vig)"/>
</svg>
