<svg viewBox="0 0 400 400" xmlns="http://www.w3.org/2000/svg" role="img" aria-label="KAI voice concierge">
  <defs>
    <linearGradient id="g" x1="0" y1="0" x2="400" y2="400" gradientUnits="userSpaceOnUse">
      <stop offset="0" stop-color="#2B2E9E"/><stop offset=".52" stop-color="#7B3FE4"/><stop offset="1" stop-color="#E0457B"/>
    </linearGradient>
    <linearGradient id="bg" x1="0" y1="0" x2="0" y2="400" gradientUnits="userSpaceOnUse">
      <stop offset="0" stop-color="#eef0fb"/><stop offset="1" stop-color="#f7f5fc"/>
    </linearGradient>
    <filter id="sh" x="-40%" y="-40%" width="180%" height="180%"><feDropShadow dx="0" dy="16" stdDeviation="20" flood-color="#3a1f6e" flood-opacity="0.20"/></filter>
  </defs>
  <rect width="400" height="400" fill="url(#bg)"/>
  <rect x="32" y="30" width="168" height="36" rx="18" fill="#fff" stroke="#e6e2f2"/>
  <circle cx="52" cy="48" r="5" fill="#2B2E9E"/>
  <text x="66" y="53" font-family="'DM Sans',Arial,sans-serif" font-size="14.5" font-weight="700" fill="#150f26">KAI · Life Intel</text>
  <circle cx="200" cy="186" r="88" fill="url(#g)" filter="url(#sh)"/>
  <circle cx="200" cy="186" r="88" fill="none" stroke="#fff" stroke-opacity=".18" stroke-width="10"/>
  <g fill="#fff">
    <rect x="166" y="170" width="10" height="32" rx="5"/>
    <rect x="183" y="152" width="10" height="68" rx="5"/>
    <rect x="200" y="140" width="10" height="92" rx="5"/>
    <rect x="217" y="158" width="10" height="56" rx="5"/>
    <rect x="234" y="174" width="10" height="24" rx="5"/>
  </g>
  <rect x="32" y="300" width="336" height="70" rx="20" fill="#fff" stroke="#e6e2f2" filter="url(#sh)"/>
  <text x="54" y="331" font-family="'DM Sans',Arial,sans-serif" font-size="15.5" font-weight="700" fill="#150f26">Ask for anything</text>
  <text x="54" y="352" font-family="Arial,sans-serif" font-size="12.5" fill="#6b6683">&#8220;Move $200 to savings, hold a table at 8&#8221;</text>
  <circle cx="338" cy="335" r="18" fill="url(#g)"/>
  <g fill="#fff"><rect x="333" y="328" width="3.4" height="14" rx="1.7"/><rect x="339" y="331" width="3.4" height="8" rx="1.7"/><rect x="327" y="331" width="3.4" height="8" rx="1.7"/></g>
</svg>
